<?xml version="1.0" encoding="UTF-8" standalone="no"?>
<!-- Created with Inkscape (http://www.inkscape.org/) -->

<svg
   width="90.77327mm"
   height="141.91647mm"
   viewBox="0 0 90.77327 141.91647"
   version="1.1"
   id="svg5"
   sodipodi:docname="gamen2015summary.svg"
   inkscape:version="1.1.1 (3bf5ae0d25, 2021-09-20)"
   xmlns:inkscape="http://www.inkscape.org/namespaces/inkscape"
   xmlns:sodipodi="http://sodipodi.sourceforge.net/DTD/sodipodi-0.dtd"
   xmlns="http://www.w3.org/2000/svg"
   xmlns:svg="http://www.w3.org/2000/svg">
  <sodipodi:namedview
     id="namedview7"
     pagecolor="#ffffff"
     bordercolor="#666666"
     borderopacity="1.0"
     inkscape:pageshadow="2"
     inkscape:pageopacity="0.0"
     inkscape:pagecheckerboard="0"
     inkscape:document-units="mm"
     showgrid="false"
     fit-margin-top="0"
     fit-margin-left="0"
     fit-margin-right="0"
     fit-margin-bottom="0"
     inkscape:zoom="0.65655864"
     inkscape:cx="-295.48008"
     inkscape:cy="294.71853"
     inkscape:window-width="1920"
     inkscape:window-height="1064"
     inkscape:window-x="0"
     inkscape:window-y="16"
     inkscape:window-maximized="1"
     inkscape:current-layer="g31" />
  <defs
     id="defs2">
    <clipPath
       clipPathUnits="userSpaceOnUse"
       id="clipPath2354">
      <path
         d="m 51.72,607.56 h 226.7 V 765.842 H 51.72 Z"
         id="path2352" />
    </clipPath>
  </defs>
  <g
     inkscape:label="Layer 1"
     inkscape:groupmode="layer"
     id="layer1"
     transform="translate(-82.931131,-86.063083)">
    <g
       id="g31"
       inkscape:label="gamen2015"
       transform="matrix(0.35277777,0,0,-0.35277777,207.39247,447.88925)">
      <g
         id="g9340">
        <g
           id="g9158">
          <path
             d="m -113.96027,896.18946 h -2.046 m -201.756,0 h 2.046"
             style="fill:none;stroke:#000000;stroke-width:0.325;stroke-linecap:butt;stroke-linejoin:miter;stroke-miterlimit:3.8;stroke-dasharray:none;stroke-opacity:1"
             id="path769" />
          <text
             transform="scale(1,-1)"
             style="font-variant:normal;font-weight:normal;font-size:4.547px;font-family:Times;-inkscape-font-specification:Times-Roman;writing-mode:lr-tb;fill:#1d1d1b;fill-opacity:1;fill-rule:nonzero;stroke:none"
             id="text773"
             x="-322.75931"
             y="-894.66333"><tspan
               x="-322.75931"
               y="-894.66333"
               id="tspan771">0</tspan></text>
          <path
             d="m -113.96027,924.93246 h -2.046 m -201.756,0 h 2.046"
             style="fill:none;stroke:#000000;stroke-width:0.325;stroke-linecap:butt;stroke-linejoin:miter;stroke-miterlimit:3.8;stroke-dasharray:none;stroke-opacity:1"
             id="path775" />
          <text
             transform="scale(1,-1)"
             style="font-variant:normal;font-weight:normal;font-size:4.547px;font-family:Times;-inkscape-font-specification:Times-Roman;writing-mode:lr-tb;fill:#1d1d1b;fill-opacity:1;fill-rule:nonzero;stroke:none"
             id="text779"
             x="-325.02771"
             y="-923.41144"><tspan
               x="-325.02771 -322.75467"
               y="-923.41144"
               sodipodi:role="line"
               id="tspan777">10</tspan></text>
          <path
             d="m -113.96027,953.67646 h -2.046 m -201.756,0 h 2.046"
             style="fill:none;stroke:#000000;stroke-width:0.325;stroke-linecap:butt;stroke-linejoin:miter;stroke-miterlimit:3.8;stroke-dasharray:none;stroke-opacity:1"
             id="path781" />
          <text
             transform="scale(1,-1)"
             style="font-variant:normal;font-weight:normal;font-size:4.547px;font-family:Times;-inkscape-font-specification:Times-Roman;writing-mode:lr-tb;fill:#1d1d1b;fill-opacity:1;fill-rule:nonzero;stroke:none"
             id="text785"
             x="-325.02771"
             y="-952.15497"><tspan
               x="-325.02771 -322.75467"
               y="-952.15497"
               sodipodi:role="line"
               id="tspan783">20</tspan></text>
          <path
             d="m -113.96027,982.38746 h -2.046 m -201.756,0 h 2.046"
             style="fill:none;stroke:#000000;stroke-width:0.325;stroke-linecap:butt;stroke-linejoin:miter;stroke-miterlimit:3.8;stroke-dasharray:none;stroke-opacity:1"
             id="path787" />
          <text
             transform="scale(1,-1)"
             style="font-variant:normal;font-weight:normal;font-size:4.547px;font-family:Times;-inkscape-font-specification:Times-Roman;writing-mode:lr-tb;fill:#1d1d1b;fill-opacity:1;fill-rule:nonzero;stroke:none"
             id="text791"
             x="-325.02771"
             y="-980.86816"><tspan
               x="-325.02771 -322.75467"
               y="-980.86816"
               sodipodi:role="line"
               id="tspan789">30</tspan></text>
          <path
             d="m -113.96027,1011.1305 h -2.046 m -201.756,0 h 2.046"
             style="fill:none;stroke:#000000;stroke-width:0.325;stroke-linecap:butt;stroke-linejoin:miter;stroke-miterlimit:3.8;stroke-dasharray:none;stroke-opacity:1"
             id="path793" />
          <text
             transform="scale(1,-1)"
             style="font-variant:normal;font-weight:normal;font-size:4.547px;font-family:Times;-inkscape-font-specification:Times-Roman;writing-mode:lr-tb;fill:#1d1d1b;fill-opacity:1;fill-rule:nonzero;stroke:none"
             id="text797"
             x="-325.02771"
             y="-1009.6168"><tspan
               x="-325.02771 -322.75467"
               y="-1009.6168"
               sodipodi:role="line"
               id="tspan795">40</tspan></text>
          <path
             d="m -317.76227,1025.4865 v -2.046 m 0,-141.60704 v 2.046"
             style="fill:none;stroke:#000000;stroke-width:0.325;stroke-linecap:butt;stroke-linejoin:miter;stroke-miterlimit:3.8;stroke-dasharray:none;stroke-opacity:1"
             id="path799" />
          <text
             transform="scale(1,-1)"
             style="font-variant:normal;font-weight:normal;font-size:4.547px;font-family:Times;-inkscape-font-specification:Times-Roman;writing-mode:lr-tb;fill:#1d1d1b;fill-opacity:1;fill-rule:nonzero;stroke:none"
             id="text803"
             x="-318.32401"
             y="-875.76996"><tspan
               x="-318.32401"
               y="-875.76996"
               id="tspan801">0</tspan></text>
          <path
             d="m -290.57827,1025.4865 v -2.046 m 0,-141.60704 v 2.046"
             style="fill:none;stroke:#000000;stroke-width:0.325;stroke-linecap:butt;stroke-linejoin:miter;stroke-miterlimit:3.8;stroke-dasharray:none;stroke-opacity:1"
             id="path805" />
          <text
             transform="scale(1,-1)"
             style="font-variant:normal;font-weight:normal;font-size:4.547px;font-family:Times;-inkscape-font-specification:Times-Roman;writing-mode:lr-tb;fill:#1d1d1b;fill-opacity:1;fill-rule:nonzero;stroke:none"
             id="text809"
             x="-292.84351"
             y="-875.76996"><tspan
               x="-292.84351 -290.57001 -289.43326"
               y="-875.76996"
               sodipodi:role="line"
               id="tspan807">0.2</tspan></text>
          <path
             d="m -263.42627,1025.4865 v -2.046 m 0,-141.60704 v 2.046"
             style="fill:none;stroke:#000000;stroke-width:0.325;stroke-linecap:butt;stroke-linejoin:miter;stroke-miterlimit:3.8;stroke-dasharray:none;stroke-opacity:1"
             id="path811" />
          <text
             transform="scale(1,-1)"
             style="font-variant:normal;font-weight:normal;font-size:4.547px;font-family:Times;-inkscape-font-specification:Times-Roman;writing-mode:lr-tb;fill:#1d1d1b;fill-opacity:1;fill-rule:nonzero;stroke:none"
             id="text815"
             x="-265.6936"
             y="-875.76996"><tspan
               x="-265.6936 -263.4201 -262.28336"
               y="-875.76996"
               sodipodi:role="line"
               id="tspan813">0.4</tspan></text>
          <path
             d="m -236.24127,1025.4865 v -2.046 m 0,-141.60704 v 2.046"
             style="fill:none;stroke:#000000;stroke-width:0.325;stroke-linecap:butt;stroke-linejoin:miter;stroke-miterlimit:3.8;stroke-dasharray:none;stroke-opacity:1"
             id="path817" />
          <text
             transform="scale(1,-1)"
             style="font-variant:normal;font-weight:normal;font-size:4.547px;font-family:Times;-inkscape-font-specification:Times-Roman;writing-mode:lr-tb;fill:#1d1d1b;fill-opacity:1;fill-rule:nonzero;stroke:none"
             id="text821"
             x="-238.50772"
             y="-875.76996"><tspan
               x="-238.50772 -236.23422 -235.09747"
               y="-875.76996"
               sodipodi:role="line"
               id="tspan819">0.6</tspan></text>
          <path
             d="m -209.05727,1025.4865 v -2.046 m 0,-141.60704 v 2.046"
             style="fill:none;stroke:#000000;stroke-width:0.325;stroke-linecap:butt;stroke-linejoin:miter;stroke-miterlimit:3.8;stroke-dasharray:none;stroke-opacity:1"
             id="path823" />
          <text
             transform="scale(1,-1)"
             style="font-variant:normal;font-weight:normal;font-size:4.547px;font-family:Times;-inkscape-font-specification:Times-Roman;writing-mode:lr-tb;fill:#1d1d1b;fill-opacity:1;fill-rule:nonzero;stroke:none"
             id="text827"
             x="-211.32262"
             y="-875.76996"><tspan
               x="-211.32262 -209.04912 -207.91237"
               y="-875.76996"
               sodipodi:role="line"
               id="tspan825">0.8</tspan></text>
          <path
             d="m -181.90527,1025.4865 v -2.046 m 0,-141.60704 v 2.046"
             style="fill:none;stroke:#000000;stroke-width:0.325;stroke-linecap:butt;stroke-linejoin:miter;stroke-miterlimit:3.8;stroke-dasharray:none;stroke-opacity:1"
             id="path829" />
          <text
             transform="scale(1,-1)"
             style="font-variant:normal;font-weight:normal;font-size:4.547px;font-family:Times;-inkscape-font-specification:Times-Roman;writing-mode:lr-tb;fill:#1d1d1b;fill-opacity:1;fill-rule:nonzero;stroke:none"
             id="text833"
             x="-182.46242"
             y="-875.76996"><tspan
               x="-182.46242"
               y="-875.76996"
               id="tspan831">1</tspan></text>
          <path
             d="m -154.72027,1025.4865 v -2.046 m 0,-141.60704 v 2.046"
             style="fill:none;stroke:#000000;stroke-width:0.325;stroke-linecap:butt;stroke-linejoin:miter;stroke-miterlimit:3.8;stroke-dasharray:none;stroke-opacity:1"
             id="path835" />
          <text
             transform="scale(1,-1)"
             style="font-variant:normal;font-weight:normal;font-size:4.547px;font-family:Times;-inkscape-font-specification:Times-Roman;writing-mode:lr-tb;fill:#1d1d1b;fill-opacity:1;fill-rule:nonzero;stroke:none"
             id="text839"
             x="-156.98671"
             y="-875.76996"><tspan
               x="-156.98671 -154.71321 -153.57646"
               y="-875.76996"
               sodipodi:role="line"
               id="tspan837">1.2</tspan></text>
          <path
             d="m -127.53627,1025.4865 v -2.046 m 0,-141.60704 v 2.046"
             style="fill:none;stroke:#000000;stroke-width:0.325;stroke-linecap:butt;stroke-linejoin:miter;stroke-miterlimit:3.8;stroke-dasharray:none;stroke-opacity:1"
             id="path841" />
          <text
             transform="scale(1,-1)"
             style="font-variant:normal;font-weight:normal;font-size:4.547px;font-family:Times;-inkscape-font-specification:Times-Roman;writing-mode:lr-tb;fill:#1d1d1b;fill-opacity:1;fill-rule:nonzero;stroke:none"
             id="text845"
             x="-129.80151"
             y="-875.76996"><tspan
               x="-129.80151 -127.52802 -126.39127"
               y="-875.76996"
               sodipodi:role="line"
               id="tspan843">1.4</tspan></text>
          <path
             d="m -113.96027,1025.4865 h -203.803 V 881.83446 h 203.803 z m -203.802,0 z"
             style="fill:none;stroke:#000000;stroke-width:0.325;stroke-linecap:butt;stroke-linejoin:miter;stroke-miterlimit:3.8;stroke-dasharray:none;stroke-opacity:1"
             id="path847" />
          <text
             transform="matrix(0,1,1,0,0,0)"
             style="font-variant:normal;font-weight:normal;font-size:7.1453px;font-family:Times;-inkscape-font-specification:Times-Roman;writing-mode:lr-tb;fill:#000000;fill-opacity:1;fill-rule:nonzero;stroke:none"
             id="text851"
             x="918.64038"
             y="-330.58646"><tspan
               x="918.64038 923.40625 926.5788 930.15143 932.13782 935.31036 937.29675 939.08307 944.24194 947.41449 949.40088 952.97351 956.14606 958.13245 960.11884 963.69147 965.47778 967.85718 971.42981 976.98889 978.67017"
               y="-330.58646"
               sodipodi:role="line"
               id="tspan849">Radial Velocity [km s</tspan></text>
          <text
             transform="matrix(0,1,1,0,0,0)"
             style="font-variant:normal;font-weight:normal;font-size:5.7162px;font-family:Times;-inkscape-font-specification:Times-Roman;writing-mode:lr-tb;fill:#000000;fill-opacity:1;fill-rule:nonzero;stroke:none"
             id="text855"
             x="981.51263"
             y="-334.15726"><tspan
               x="981.51263 983.41614"
               y="-334.15726"
               sodipodi:role="line"
               id="tspan853">-1</tspan></text>
          <text
             transform="matrix(0,1,1,0,0,0)"
             style="font-variant:normal;font-weight:normal;font-size:7.1453px;font-family:Times;-inkscape-font-specification:Times-Roman;writing-mode:lr-tb;fill:#000000;fill-opacity:1;fill-rule:nonzero;stroke:none"
             id="text859"
             x="986.27283"
             y="-330.58646"><tspan
               x="986.27283"
               y="-330.58646"
               id="tspan857">]</tspan></text>
          <text
             transform="scale(1,-1)"
             style="font-variant:normal;font-weight:normal;font-size:7.1453px;font-family:Times;-inkscape-font-specification:Times-Roman;writing-mode:lr-tb;fill:#000000;fill-opacity:1;fill-rule:nonzero;stroke:none"
             id="text863"
             x="-235.22487"
             y="-868.09015"><tspan
               x="-235.22487 -230.06596 -227.68657 -224.11392 -222.12753 -220.14114 -216.96863 -214.98222"
               y="-868.09015"
               sodipodi:role="line"
               id="tspan861">Orbital</tspan></text>
          <text
             transform="scale(1,-1)"
             style="font-variant:normal;font-weight:normal;font-size:7.1453px;font-family:Times;-inkscape-font-specification:Times-Roman;writing-mode:lr-tb;fill:#000000;fill-opacity:1;fill-rule:nonzero;stroke:none"
             id="text867"
             x="-213.19591"
             y="-868.09015"><tspan
               x="-213.19591"
               y="-868.09015"
               id="tspan865">P</tspan></text>
          <text
             transform="scale(1,-1)"
             style="font-variant:normal;font-weight:normal;font-size:7.1453px;font-family:Times;-inkscape-font-specification:Times-Roman;writing-mode:lr-tb;fill:#000000;fill-opacity:1;fill-rule:nonzero;stroke:none"
             id="text871"
             x="-209.22311"
             y="-868.09015"><tspan
               x="-209.22311 -205.65047 -202.47795 -199.69843"
               y="-868.09015"
               sodipodi:role="line"
               id="tspan869">hase</tspan></text>
          <text
             transform="scale(1,-1)"
             style="font-variant:normal;font-weight:normal;font-size:4.547px;font-family:Times;-inkscape-font-specification:Times-Roman;writing-mode:lr-tb;fill:#1d1d1b;fill-opacity:1;fill-rule:nonzero;stroke:none"
             id="text875"
             x="-290.57516"
             y="-894.66333"><tspan
               x="-290.57516 -287.29224 -284.00931 -282.87256 -280.59906 -278.32556 -276.05206 -273.77853"
               y="-894.66333"
               sodipodi:role="line"
               id="tspan873">HD 74194</tspan></text>
          <path
             d="m -315.36527,996.46946 c 0,1.13 -0.917,2.047 -2.047,2.047 -1.129,0 -2.046,-0.917 -2.046,-2.047 0,-1.129 0.917,-2.046 2.046,-2.046 1.13,0 2.047,0.917 2.047,2.046"
             style="fill:#000000;fill-opacity:1;fill-rule:nonzero;stroke:none"
             id="path877" />
          <path
             d="m -315.13227,1005.1225 c 0,1.129 -0.916,2.046 -2.046,2.046 -1.129,0 -2.046,-0.917 -2.046,-2.046 0,-1.13 0.917,-2.046 2.046,-2.046 1.13,0 2.046,0.916 2.046,2.046"
             style="fill:#000000;fill-opacity:1;fill-rule:nonzero;stroke:none"
             id="path879" />
          <path
             d="m -314.43027,998.73046 c 0,1.129 -0.917,2.04604 -2.046,2.04604 -1.13,0 -2.046,-0.91704 -2.046,-2.04604 0,-1.129 0.916,-2.046 2.046,-2.046 1.129,0 2.046,0.917 2.046,2.046"
             style="fill:#000000;fill-opacity:1;fill-rule:nonzero;stroke:none"
             id="path881" />
          <path
             d="m -311.70227,1006.2135 c 0,1.129 -0.916,2.046 -2.046,2.046 -1.13,0 -2.046,-0.917 -2.046,-2.046 0,-1.129 0.916,-2.046 2.046,-2.046 1.13,0 2.046,0.917 2.046,2.046"
             style="fill:#000000;fill-opacity:1;fill-rule:nonzero;stroke:none"
             id="path883" />
          <path
             d="m -304.06327,990.93546 c 0,1.13 -0.917,2.046 -2.046,2.046 -1.13,0 -2.046,-0.916 -2.046,-2.046 0,-1.129 0.916,-2.046 2.046,-2.046 1.129,0 2.046,0.917 2.046,2.046"
             style="fill:#000000;fill-opacity:1;fill-rule:nonzero;stroke:none"
             id="path885" />
          <path
             d="m -301.41327,1009.9545 c 0,1.13 -0.916,2.047 -2.046,2.047 -1.129,0 -2.046,-0.917 -2.046,-2.047 0,-1.129 0.917,-2.046 2.046,-2.046 1.13,0 2.046,0.917 2.046,2.046"
             style="fill:#000000;fill-opacity:1;fill-rule:nonzero;stroke:none"
             id="path887" />
          <path
             d="m -300.32127,976.04746 c 0,1.129 -0.917,2.046 -2.047,2.046 -1.129,0 -2.046,-0.917 -2.046,-2.046 0,-1.129 0.917,-2.046 2.046,-2.046 1.13,0 2.047,0.917 2.047,2.046"
             style="fill:#000000;fill-opacity:1;fill-rule:nonzero;stroke:none"
             id="path889" />
          <path
             d="m -286.60327,977.84046 c 0,1.129 -0.916,2.046 -2.046,2.046 -1.129,0 -2.046,-0.917 -2.046,-2.046 0,-1.13 0.917,-2.046 2.046,-2.046 1.13,0 2.046,0.916 2.046,2.046"
             style="fill:#000000;fill-opacity:1;fill-rule:nonzero;stroke:none"
             id="path891" />
          <path
             d="m -285.82327,965.44646 c 0,1.129 -0.917,2.046 -2.046,2.046 -1.13,0 -2.046,-0.917 -2.046,-2.046 0,-1.13 0.916,-2.046 2.046,-2.046 1.129,0 2.046,0.916 2.046,2.046"
             style="fill:#000000;fill-opacity:1;fill-rule:nonzero;stroke:none"
             id="path893" />
          <path
             d="m -283.79627,959.13246 c 0,1.13 -0.917,2.046 -2.046,2.046 -1.13,0 -2.047,-0.916 -2.047,-2.046 0,-1.129 0.917,-2.046 2.047,-2.046 1.129,0 2.046,0.917 2.046,2.046"
             style="fill:#000000;fill-opacity:1;fill-rule:nonzero;stroke:none"
             id="path895" />
          <path
             d="m -278.18427,957.96346 c 0,1.13 -0.917,2.046 -2.046,2.046 -1.13,0 -2.046,-0.916 -2.046,-2.046 0,-1.13 0.916,-2.046 2.046,-2.046 1.129,0 2.046,0.916 2.046,2.046"
             style="fill:#000000;fill-opacity:1;fill-rule:nonzero;stroke:none"
             id="path897" />
          <path
             d="m -275.84627,934.96846 c 0,1.13 -0.916,2.046 -2.046,2.046 -1.129,0 -2.046,-0.916 -2.046,-2.046 0,-1.129 0.917,-2.046 2.046,-2.046 1.13,0 2.046,0.917 2.046,2.046"
             style="fill:#000000;fill-opacity:1;fill-rule:nonzero;stroke:none"
             id="path899" />
          <path
             d="m -268.83027,956.79446 c 0,1.129 -0.917,2.046 -2.047,2.046 -1.129,0 -2.045,-0.917 -2.045,-2.046 0,-1.13 0.916,-2.046 2.045,-2.046 1.13,0 2.047,0.916 2.047,2.046"
             style="fill:#000000;fill-opacity:1;fill-rule:nonzero;stroke:none"
             id="path901" />
          <path
             d="m -267.58327,936.68346 c 0,1.129 -0.916,2.046 -2.046,2.046 -1.13,0 -2.047,-0.917 -2.047,-2.046 0,-1.13 0.917,-2.046 2.047,-2.046 1.13,0 2.046,0.916 2.046,2.046"
             style="fill:#000000;fill-opacity:1;fill-rule:nonzero;stroke:none"
             id="path903" />
          <path
             d="m -264.30927,955.70246 c 0,1.13 -0.917,2.047 -2.047,2.047 -1.129,0 -2.045,-0.917 -2.045,-2.047 0,-1.129 0.916,-2.046 2.045,-2.046 1.13,0 2.047,0.917 2.047,2.046"
             style="fill:#000000;fill-opacity:1;fill-rule:nonzero;stroke:none"
             id="path905" />
          <path
             d="m -263.21827,936.13746 c 0,1.129 -0.917,2.047 -2.046,2.047 -1.13,0 -2.046,-0.918 -2.046,-2.047 0,-1.129 0.916,-2.046 2.046,-2.046 1.129,0 2.046,0.917 2.046,2.046"
             style="fill:#000000;fill-opacity:1;fill-rule:nonzero;stroke:none"
             id="path907" />
          <path
             d="m -262.43827,951.02546 c 0,1.13 -0.917,2.047 -2.046,2.047 -1.13,0 -2.047,-0.917 -2.047,-2.047 0,-1.129 0.917,-2.046 2.047,-2.046 1.129,0 2.046,0.917 2.046,2.046"
             style="fill:#000000;fill-opacity:1;fill-rule:nonzero;stroke:none"
             id="path909" />
          <path
             d="m -258.38627,936.13746 c 0,1.129 -0.916,2.047 -2.045,2.047 -1.13,0 -2.046,-0.918 -2.046,-2.047 0,-1.129 0.916,-2.046 2.046,-2.046 1.129,0 2.045,0.917 2.045,2.046"
             style="fill:#000000;fill-opacity:1;fill-rule:nonzero;stroke:none"
             id="path911" />
          <path
             d="m -256.35827,933.56546 c 0,1.13 -0.917,2.046 -2.046,2.046 -1.13,0 -2.047,-0.916 -2.047,-2.046 0,-1.13 0.917,-2.046 2.047,-2.046 1.129,0 2.046,0.916 2.046,2.046"
             style="fill:#000000;fill-opacity:1;fill-rule:nonzero;stroke:none"
             id="path913" />
          <path
             d="m -255.42427,931.53846 c 0,1.129 -0.916,2.047 -2.045,2.047 -1.13,0 -2.046,-0.918 -2.046,-2.047 0,-1.129 0.916,-2.046 2.046,-2.046 1.129,0 2.045,0.917 2.045,2.046"
             style="fill:#000000;fill-opacity:1;fill-rule:nonzero;stroke:none"
             id="path915" />
          <path
             d="m -251.60327,942.45146 c 0,1.13 -0.918,2.046 -2.047,2.046 -1.129,0 -2.046,-0.916 -2.046,-2.046 0,-1.129 0.917,-2.046 2.046,-2.046 1.129,0 2.047,0.917 2.047,2.046"
             style="fill:#000000;fill-opacity:1;fill-rule:nonzero;stroke:none"
             id="path917" />
          <path
             d="m -250.27927,924.36746 c 0,1.129 -0.917,2.046 -2.045,2.046 -1.13,0 -2.047,-0.917 -2.047,-2.046 0,-1.129 0.917,-2.046 2.047,-2.046 1.128,0 2.045,0.917 2.045,2.046"
             style="fill:#000000;fill-opacity:1;fill-rule:nonzero;stroke:none"
             id="path919" />
          <path
             d="m -250.12227,940.11346 c 0,1.129 -0.917,2.046 -2.047,2.046 -1.129,0 -2.046,-0.917 -2.046,-2.046 0,-1.13 0.917,-2.046 2.046,-2.046 1.13,0 2.047,0.916 2.047,2.046"
             style="fill:#000000;fill-opacity:1;fill-rule:nonzero;stroke:none"
             id="path921" />
          <path
             d="m -249.49927,918.28746 c 0,1.13 -0.917,2.046 -2.046,2.046 -1.13,0 -2.046,-0.916 -2.046,-2.046 0,-1.129 0.916,-2.046 2.046,-2.046 1.129,0 2.046,0.917 2.046,2.046"
             style="fill:#000000;fill-opacity:1;fill-rule:nonzero;stroke:none"
             id="path923" />
          <path
             d="m -248.25227,920.31446 c 0,1.129 -0.917,2.046 -2.046,2.046 -1.129,0 -2.046,-0.917 -2.046,-2.046 0,-1.129 0.917,-2.046 2.046,-2.046 1.129,0 2.046,0.917 2.046,2.046"
             style="fill:#000000;fill-opacity:1;fill-rule:nonzero;stroke:none"
             id="path925" />
          <path
             d="m -247.16027,928.65446 c 0,1.13 -0.917,2.046 -2.047,2.046 -1.129,0 -2.046,-0.916 -2.046,-2.046 0,-1.129 0.917,-2.046 2.046,-2.046 1.13,0 2.047,0.917 2.047,2.046"
             style="fill:#000000;fill-opacity:1;fill-rule:nonzero;stroke:none"
             id="path927" />
          <path
             d="m -244.35427,922.96446 c 0,1.13 -0.917,2.046 -2.046,2.046 -1.13,0 -2.047,-0.916 -2.047,-2.046 0,-1.129 0.917,-2.046 2.047,-2.046 1.129,0 2.046,0.917 2.046,2.046"
             style="fill:#000000;fill-opacity:1;fill-rule:nonzero;stroke:none"
             id="path929" />
          <path
             d="m -241.70427,926.70646 c 0,1.129 -0.917,2.046 -2.046,2.046 -1.13,0 -2.046,-0.917 -2.046,-2.046 0,-1.13 0.916,-2.047 2.046,-2.047 1.129,0 2.046,0.917 2.046,2.047"
             style="fill:#000000;fill-opacity:1;fill-rule:nonzero;stroke:none"
             id="path931" />
          <path
             d="m -236.87127,918.28746 c 0,1.13 -0.917,2.046 -2.046,2.046 -1.13,0 -2.047,-0.916 -2.047,-2.046 0,-1.129 0.917,-2.046 2.047,-2.046 1.129,0 2.046,0.917 2.046,2.046"
             style="fill:#000000;fill-opacity:1;fill-rule:nonzero;stroke:none"
             id="path933" />
          <path
             d="m -236.40427,918.28746 c 0,1.13 -0.916,2.046 -2.046,2.046 -1.129,0 -2.046,-0.916 -2.046,-2.046 0,-1.129 0.917,-2.046 2.046,-2.046 1.13,0 2.046,0.917 2.046,2.046"
             style="fill:#000000;fill-opacity:1;fill-rule:nonzero;stroke:none"
             id="path935" />
          <path
             d="m -236.24827,903.16546 c 0,1.13 -0.917,2.046 -2.046,2.046 -1.129,0 -2.046,-0.916 -2.046,-2.046 0,-1.129 0.917,-2.046 2.046,-2.046 1.129,0 2.046,0.917 2.046,2.046"
             style="fill:#000000;fill-opacity:1;fill-rule:nonzero;stroke:none"
             id="path937" />
          <path
             d="m -236.09227,930.44746 c 0,1.13 -0.916,2.046 -2.046,2.046 -1.129,0 -2.047,-0.916 -2.047,-2.046 0,-1.129 0.918,-2.046 2.047,-2.046 1.13,0 2.046,0.917 2.046,2.046"
             style="fill:#000000;fill-opacity:1;fill-rule:nonzero;stroke:none"
             id="path939" />
          <path
             d="m -235.78027,911.11646 c 0,1.13 -0.916,2.046 -2.046,2.046 -1.13,0 -2.046,-0.916 -2.046,-2.046 0,-1.13 0.916,-2.046 2.046,-2.046 1.13,0 2.046,0.916 2.046,2.046"
             style="fill:#000000;fill-opacity:1;fill-rule:nonzero;stroke:none"
             id="path941" />
          <path
             d="m -235.46827,927.48546 c 0,1.13 -0.917,2.046 -2.046,2.046 -1.13,0 -2.047,-0.916 -2.047,-2.046 0,-1.129 0.917,-2.047 2.047,-2.047 1.129,0 2.046,0.918 2.046,2.047"
             style="fill:#000000;fill-opacity:1;fill-rule:nonzero;stroke:none"
             id="path943" />
          <path
             d="m -231.88327,916.57246 c 0,1.129 -0.916,2.046 -2.046,2.046 -1.129,0 -2.046,-0.917 -2.046,-2.046 0,-1.129 0.917,-2.046 2.046,-2.046 1.13,0 2.046,0.917 2.046,2.046"
             style="fill:#000000;fill-opacity:1;fill-rule:nonzero;stroke:none"
             id="path945" />
          <path
             d="m -231.57127,908.85546 c 0,1.129 -0.916,2.047 -2.046,2.047 -1.129,0 -2.047,-0.918 -2.047,-2.047 0,-1.129 0.918,-2.046 2.047,-2.046 1.13,0 2.046,0.917 2.046,2.046"
             style="fill:#000000;fill-opacity:1;fill-rule:nonzero;stroke:none"
             id="path947" />
          <path
             d="m -229.70027,910.33646 c 0,1.13 -0.917,2.047 -2.046,2.047 -1.13,0 -2.046,-0.917 -2.046,-2.047 0,-1.129 0.916,-2.046 2.046,-2.046 1.129,0 2.046,0.917 2.046,2.046"
             style="fill:#000000;fill-opacity:1;fill-rule:nonzero;stroke:none"
             id="path949" />
          <path
             d="m -228.76527,926.39446 c 0,1.129 -0.917,2.046 -2.046,2.046 -1.129,0 -2.046,-0.917 -2.046,-2.046 0,-1.13 0.917,-2.046 2.046,-2.046 1.129,0 2.046,0.916 2.046,2.046"
             style="fill:#000000;fill-opacity:1;fill-rule:nonzero;stroke:none"
             id="path951" />
          <path
             d="m -228.60927,913.14346 c 0,1.129 -0.916,2.046 -2.046,2.046 -1.129,0 -2.047,-0.917 -2.047,-2.046 0,-1.129 0.918,-2.047 2.047,-2.047 1.13,0 2.046,0.918 2.046,2.047"
             style="fill:#000000;fill-opacity:1;fill-rule:nonzero;stroke:none"
             id="path953" />
          <path
             d="m -223.15227,926.70646 c 0,1.129 -0.917,2.046 -2.046,2.046 -1.13,0 -2.047,-0.917 -2.047,-2.046 0,-1.13 0.917,-2.047 2.047,-2.047 1.129,0 2.046,0.917 2.046,2.047"
             style="fill:#000000;fill-opacity:1;fill-rule:nonzero;stroke:none"
             id="path955" />
          <path
             d="m -222.13927,911.42846 c 0,1.129 -0.917,2.046 -2.047,2.046 -1.129,0 -2.046,-0.917 -2.046,-2.046 0,-1.13 0.917,-2.046 2.046,-2.046 1.13,0 2.047,0.916 2.047,2.046"
             style="fill:#000000;fill-opacity:1;fill-rule:nonzero;stroke:none"
             id="path957" />
          <path
             d="m -222.06127,892.72046 c 0,1.13 -0.917,2.046 -2.047,2.046 -1.129,0 -2.045,-0.916 -2.045,-2.046 0,-1.13 0.916,-2.046 2.045,-2.046 1.13,0 2.047,0.916 2.047,2.046"
             style="fill:#000000;fill-opacity:1;fill-rule:nonzero;stroke:none"
             id="path959" />
          <path
             d="m -221.67227,899.42446 c 0,1.129 -0.916,2.046 -2.045,2.046 -1.13,0 -2.047,-0.917 -2.047,-2.046 0,-1.13 0.917,-2.046 2.047,-2.046 1.129,0 2.045,0.916 2.045,2.046"
             style="fill:#000000;fill-opacity:1;fill-rule:nonzero;stroke:none"
             id="path961" />
          <path
             d="m -216.60527,916.33846 c 0,1.13 -0.917,2.047 -2.046,2.047 -1.129,0 -2.047,-0.917 -2.047,-2.047 0,-1.129 0.918,-2.046 2.047,-2.046 1.129,0 2.046,0.917 2.046,2.046"
             style="fill:#000000;fill-opacity:1;fill-rule:nonzero;stroke:none"
             id="path963" />
          <path
             d="m -215.66927,923.19846 c 0,1.13 -0.917,2.046 -2.047,2.046 -1.129,0 -2.046,-0.916 -2.046,-2.046 0,-1.13 0.917,-2.046 2.046,-2.046 1.13,0 2.047,0.916 2.047,2.046"
             style="fill:#000000;fill-opacity:1;fill-rule:nonzero;stroke:none"
             id="path965" />
          <path
             d="m -215.66927,906.59546 c 0,1.13 -0.917,2.046 -2.047,2.046 -1.129,0 -2.046,-0.916 -2.046,-2.046 0,-1.13 0.917,-2.046 2.046,-2.046 1.13,0 2.047,0.916 2.047,2.046"
             style="fill:#000000;fill-opacity:1;fill-rule:nonzero;stroke:none"
             id="path967" />
          <path
             d="m -210.36927,916.33846 c 0,1.13 -0.916,2.047 -2.047,2.047 -1.129,0 -2.045,-0.917 -2.045,-2.047 0,-1.129 0.916,-2.046 2.045,-2.046 1.131,0 2.047,0.917 2.047,2.046"
             style="fill:#000000;fill-opacity:1;fill-rule:nonzero;stroke:none"
             id="path969" />
          <path
             d="m -207.64127,913.14346 c 0,1.129 -0.916,2.046 -2.046,2.046 -1.13,0 -2.046,-0.917 -2.046,-2.046 0,-1.129 0.916,-2.047 2.046,-2.047 1.13,0 2.046,0.918 2.046,2.047"
             style="fill:#000000;fill-opacity:1;fill-rule:nonzero;stroke:none"
             id="path971" />
          <path
             d="m -205.53727,893.65546 c 0,1.13 -0.916,2.047 -2.045,2.047 -1.13,0 -2.047,-0.917 -2.047,-2.047 0,-1.128 0.917,-2.046 2.047,-2.046 1.129,0 2.045,0.918 2.045,2.046"
             style="fill:#000000;fill-opacity:1;fill-rule:nonzero;stroke:none"
             id="path973" />
          <path
             d="m -203.04227,914.31246 c 0,1.129 -0.917,2.046 -2.046,2.046 -1.13,0 -2.047,-0.917 -2.047,-2.046 0,-1.13 0.917,-2.046 2.047,-2.046 1.129,0 2.046,0.916 2.046,2.046"
             style="fill:#000000;fill-opacity:1;fill-rule:nonzero;stroke:none"
             id="path975" />
          <path
             d="m -197.04027,898.17646 c 0,1.13 -0.917,2.047 -2.046,2.047 -1.129,0 -2.046,-0.917 -2.046,-2.047 0,-1.129 0.917,-2.046 2.046,-2.046 1.129,0 2.046,0.917 2.046,2.046"
             style="fill:#000000;fill-opacity:1;fill-rule:nonzero;stroke:none"
             id="path977" />
          <path
             d="m -196.96227,905.66046 c 0,1.129 -0.917,2.046 -2.046,2.046 -1.129,0 -2.046,-0.917 -2.046,-2.046 0,-1.13 0.917,-2.047 2.046,-2.047 1.129,0 2.046,0.917 2.046,2.047"
             style="fill:#000000;fill-opacity:1;fill-rule:nonzero;stroke:none"
             id="path979" />
          <path
             d="m -193.68827,889.29046 c 0,1.129 -0.917,2.046 -2.046,2.046 -1.13,0 -2.046,-0.917 -2.046,-2.046 0,-1.129 0.916,-2.046 2.046,-2.046 1.129,0 2.046,0.917 2.046,2.046"
             style="fill:#000000;fill-opacity:1;fill-rule:nonzero;stroke:none"
             id="path981" />
          <path
             d="m -181.21627,954.22146 c 0,1.13 -0.917,2.047 -2.047,2.047 -1.129,0 -2.045,-0.917 -2.045,-2.047 0,-1.129 0.916,-2.046 2.045,-2.046 1.13,0 2.047,0.917 2.047,2.046"
             style="fill:#000000;fill-opacity:1;fill-rule:nonzero;stroke:none"
             id="path983" />
          <path
             d="m -180.82727,984.69946 c 0,1.13 -0.917,2.046 -2.045,2.046 -1.13,0 -2.047,-0.916 -2.047,-2.046 0,-1.129 0.917,-2.046 2.047,-2.046 1.128,0 2.045,0.917 2.045,2.046"
             style="fill:#000000;fill-opacity:1;fill-rule:nonzero;stroke:none"
             id="path985" />
          <path
             d="m -179.50227,996.46946 c 0,1.13 -0.916,2.047 -2.045,2.047 -1.13,0 -2.046,-0.917 -2.046,-2.047 0,-1.129 0.916,-2.046 2.046,-2.046 1.129,0 2.045,0.917 2.045,2.046"
             style="fill:#000000;fill-opacity:1;fill-rule:nonzero;stroke:none"
             id="path987" />
          <path
             d="m -179.26727,1005.1225 c 0,1.129 -0.917,2.046 -2.047,2.046 -1.129,0 -2.046,-0.917 -2.046,-2.046 0,-1.13 0.917,-2.046 2.046,-2.046 1.13,0 2.047,0.916 2.047,2.046"
             style="fill:#000000;fill-opacity:1;fill-rule:nonzero;stroke:none"
             id="path989" />
          <path
             d="m -178.56627,998.73046 c 0,1.129 -0.916,2.04604 -2.047,2.04604 -1.129,0 -2.045,-0.91704 -2.045,-2.04604 0,-1.129 0.916,-2.046 2.045,-2.046 1.131,0 2.047,0.917 2.047,2.046"
             style="fill:#000000;fill-opacity:1;fill-rule:nonzero;stroke:none"
             id="path991" />
          <path
             d="m -175.91627,1006.2135 c 0,1.129 -0.916,2.046 -2.046,2.046 -1.129,0 -2.046,-0.917 -2.046,-2.046 0,-1.129 0.917,-2.046 2.046,-2.046 1.13,0 2.046,0.917 2.046,2.046"
             style="fill:#000000;fill-opacity:1;fill-rule:nonzero;stroke:none"
             id="path993" />
          <path
             d="m -168.27727,990.93546 c 0,1.13 -0.916,2.046 -2.046,2.046 -1.129,0 -2.046,-0.916 -2.046,-2.046 0,-1.129 0.917,-2.046 2.046,-2.046 1.13,0 2.046,0.917 2.046,2.046"
             style="fill:#000000;fill-opacity:1;fill-rule:nonzero;stroke:none"
             id="path995" />
          <path
             d="m -165.47027,1009.9545 c 0,1.13 -0.917,2.047 -2.047,2.047 -1.129,0 -2.046,-0.917 -2.046,-2.047 0,-1.129 0.917,-2.046 2.046,-2.046 1.13,0 2.047,0.917 2.047,2.046"
             style="fill:#000000;fill-opacity:1;fill-rule:nonzero;stroke:none"
             id="path997" />
          <path
             d="m -164.37927,976.04746 c 0,1.129 -0.917,2.046 -2.047,2.046 -1.129,0 -2.045,-0.917 -2.045,-2.046 0,-1.129 0.916,-2.046 2.045,-2.046 1.13,0 2.047,0.917 2.047,2.046"
             style="fill:#000000;fill-opacity:1;fill-rule:nonzero;stroke:none"
             id="path999" />
          <path
             d="m -150.66027,977.84046 c 0,1.129 -0.917,2.046 -2.047,2.046 -1.129,0 -2.046,-0.917 -2.046,-2.046 0,-1.13 0.917,-2.046 2.046,-2.046 1.13,0 2.047,0.916 2.047,2.046"
             style="fill:#000000;fill-opacity:1;fill-rule:nonzero;stroke:none"
             id="path1001" />
          <path
             d="m -150.03727,965.44646 c 0,1.129 -0.916,2.046 -2.046,2.046 -1.129,0 -2.046,-0.917 -2.046,-2.046 0,-1.13 0.917,-2.046 2.046,-2.046 1.13,0 2.046,0.916 2.046,2.046"
             style="fill:#000000;fill-opacity:1;fill-rule:nonzero;stroke:none"
             id="path1003" />
          <path
             d="m -148.01027,959.13246 c 0,1.13 -0.917,2.046 -2.047,2.046 -1.129,0 -2.045,-0.916 -2.045,-2.046 0,-1.129 0.916,-2.046 2.045,-2.046 1.13,0 2.047,0.917 2.047,2.046"
             style="fill:#000000;fill-opacity:1;fill-rule:nonzero;stroke:none"
             id="path1005" />
          <path
             d="m -142.32027,957.96346 c 0,1.13 -0.917,2.046 -2.047,2.046 -1.129,0 -2.045,-0.916 -2.045,-2.046 0,-1.13 0.916,-2.046 2.045,-2.046 1.13,0 2.047,0.916 2.047,2.046"
             style="fill:#000000;fill-opacity:1;fill-rule:nonzero;stroke:none"
             id="path1007" />
          <path
             d="m -139.98227,934.96846 c 0,1.13 -0.917,2.046 -2.045,2.046 -1.13,0 -2.047,-0.916 -2.047,-2.046 0,-1.129 0.917,-2.046 2.047,-2.046 1.128,0 2.045,0.917 2.045,2.046"
             style="fill:#000000;fill-opacity:1;fill-rule:nonzero;stroke:none"
             id="path1009" />
          <path
             d="m -133.04427,956.79446 c 0,1.129 -0.916,2.046 -2.047,2.046 -1.129,0 -2.045,-0.917 -2.045,-2.046 0,-1.13 0.916,-2.046 2.045,-2.046 1.131,0 2.047,0.916 2.047,2.046"
             style="fill:#000000;fill-opacity:1;fill-rule:nonzero;stroke:none"
             id="path1011" />
          <path
             d="m -131.79727,936.68346 c 0,1.129 -0.916,2.046 -2.047,2.046 -1.129,0 -2.045,-0.917 -2.045,-2.046 0,-1.13 0.916,-2.046 2.045,-2.046 1.131,0 2.047,0.916 2.047,2.046"
             style="fill:#000000;fill-opacity:1;fill-rule:nonzero;stroke:none"
             id="path1013" />
          <path
             d="m -128.52327,955.70246 c 0,1.13 -0.916,2.047 -2.047,2.047 -1.129,0 -2.045,-0.917 -2.045,-2.047 0,-1.129 0.916,-2.046 2.045,-2.046 1.131,0 2.047,0.917 2.047,2.046"
             style="fill:#000000;fill-opacity:1;fill-rule:nonzero;stroke:none"
             id="path1015" />
          <path
             d="m -127.27627,936.13746 c 0,1.129 -0.916,2.047 -2.047,2.047 -1.128,0 -2.045,-0.918 -2.045,-2.047 0,-1.129 0.917,-2.046 2.045,-2.046 1.131,0 2.047,0.917 2.047,2.046"
             style="fill:#000000;fill-opacity:1;fill-rule:nonzero;stroke:none"
             id="path1017" />
          <path
             d="m -126.65227,951.02546 c 0,1.13 -0.917,2.047 -2.047,2.047 -1.129,0 -2.045,-0.917 -2.045,-2.047 0,-1.129 0.916,-2.046 2.045,-2.046 1.13,0 2.047,0.917 2.047,2.046"
             style="fill:#000000;fill-opacity:1;fill-rule:nonzero;stroke:none"
             id="path1019" />
          <path
             d="m -122.59927,936.13746 c 0,1.129 -0.916,2.047 -2.046,2.047 -1.13,0 -2.046,-0.918 -2.046,-2.047 0,-1.129 0.916,-2.046 2.046,-2.046 1.13,0 2.046,0.917 2.046,2.046"
             style="fill:#000000;fill-opacity:1;fill-rule:nonzero;stroke:none"
             id="path1021" />
          <path
             d="m -120.49527,933.56546 c 0,1.13 -0.916,2.046 -2.045,2.046 -1.13,0 -2.047,-0.916 -2.047,-2.046 0,-1.13 0.917,-2.046 2.047,-2.046 1.129,0 2.045,0.916 2.045,2.046"
             style="fill:#000000;fill-opacity:1;fill-rule:nonzero;stroke:none"
             id="path1023" />
          <path
             d="m -119.48127,931.53846 c 0,1.129 -0.916,2.047 -2.047,2.047 -1.129,0 -2.045,-0.918 -2.045,-2.047 0,-1.129 0.916,-2.046 2.045,-2.046 1.131,0 2.047,0.917 2.047,2.046"
             style="fill:#000000;fill-opacity:1;fill-rule:nonzero;stroke:none"
             id="path1025" />
          <path
             d="m -115.73927,942.45146 c 0,1.13 -0.918,2.046 -2.046,2.046 -1.13,0 -2.047,-0.916 -2.047,-2.046 0,-1.129 0.917,-2.046 2.047,-2.046 1.128,0 2.046,0.917 2.046,2.046"
             style="fill:#000000;fill-opacity:1;fill-rule:nonzero;stroke:none"
             id="path1027" />
          <path
             d="m -114.49327,924.36746 c 0,1.129 -0.916,2.046 -2.045,2.046 -1.13,0 -2.047,-0.917 -2.047,-2.046 0,-1.129 0.917,-2.046 2.047,-2.046 1.129,0 2.045,0.917 2.045,2.046"
             style="fill:#000000;fill-opacity:1;fill-rule:nonzero;stroke:none"
             id="path1029" />
          <path
             d="m -114.18027,940.11346 c 0,1.129 -0.917,2.046 -2.047,2.046 -1.129,0 -2.046,-0.917 -2.046,-2.046 0,-1.13 0.917,-2.046 2.046,-2.046 1.13,0 2.047,0.916 2.047,2.046"
             style="fill:#000000;fill-opacity:1;fill-rule:nonzero;stroke:none"
             id="path1031" />
          <path
             d="m -113.71327,918.28746 c 0,1.13 -0.916,2.046 -2.046,2.046 -1.129,0 -2.046,-0.916 -2.046,-2.046 0,-1.129 0.917,-2.046 2.046,-2.046 1.13,0 2.046,0.917 2.046,2.046"
             style="fill:#000000;fill-opacity:1;fill-rule:nonzero;stroke:none"
             id="path1033" />
          <path
             d="m -112.31027,920.31446 c 0,1.129 -0.916,2.046 -2.046,2.046 -1.129,0 -2.046,-0.917 -2.046,-2.046 0,-1.129 0.917,-2.046 2.046,-2.046 1.13,0 2.046,0.917 2.046,2.046"
             style="fill:#000000;fill-opacity:1;fill-rule:nonzero;stroke:none"
             id="path1035" />
          <path
             d="m -176.44827,1019.1205 1.364,-2.631 1.332,-3.702 1.364,-4.158 1.364,-4.189 1.364,-4.06 1.363,-3.89804 1.365,-3.637 1.332,-3.443 1.363,-3.215 1.365,-3.021 1.364,-2.825 1.364,-2.664 1.332,-2.533 1.364,-2.371 1.364,-2.241 1.364,-2.143 1.363,-2.047 1.365,-1.948 1.364,-1.852 1.331,-1.786 1.365,-1.721 1.364,-1.657 1.364,-1.591 1.364,-1.527 1.364,-1.494 1.332,-1.429 1.364,-1.396 1.363,-1.364 1.365,-1.3 1.364,-1.299 1.364,-1.234 1.332,-1.234 1.364,-1.202 1.364,-1.169 1.364,-1.137 1.364,-1.104 1.332,-1.104 1.364,-1.105 1.364,-1.071 2.728,-2.079 1.365,-1.007 1.331,-1.007 1.364,-1.006 1.364,-0.975 m -202.438,59.144 1.364,16.69304 1.364,10.101 1.364,3.898 1.332,-0.26 1.364,-2.631 1.364,-3.702 1.364,-4.158 1.364,-4.189 1.364,-4.06 1.332,-3.89804 1.364,-3.637 1.364,-3.443 1.364,-3.215 1.364,-3.021 1.364,-2.825 1.332,-2.664 1.364,-2.533 1.364,-2.371 1.364,-2.241 1.364,-2.143 1.364,-2.047 1.332,-1.948 1.364,-1.852 1.364,-1.786 1.364,-1.721 1.364,-1.657 1.364,-1.591 1.332,-1.527 1.364,-1.494 1.364,-1.429 1.364,-1.396 1.364,-1.364 1.365,-1.3 1.331,-1.299 1.364,-1.234 1.364,-1.234 1.365,-1.202 1.364,-1.169 1.364,-1.137 1.331,-1.104 2.729,-2.209 1.364,-1.071 2.728,-2.079 1.331,-1.007 2.729,-2.013 2.728,-1.949 1.364,-0.942 1.332,-0.942 4.092,-2.826 1.364,-0.909 1.332,-0.909 5.456,-3.638 1.364,-0.877 1.364,-0.909 1.332,-0.877 2.728,-1.754 1.364,-0.909 1.364,-0.877 1.332,-0.877 2.728,-1.754 1.363,-0.844 2.729,-1.754 1.364,-0.845 1.332,-0.844 2.728,-1.689 2.728,-1.624 1.364,-0.747 1.332,-0.747 1.364,-0.715 1.364,-0.617 1.364,-0.584 1.364,-0.455 1.365,-0.325 1.331,-0.162 1.364,0.097 1.364,0.39 1.364,0.877 1.365,1.494 1.364,2.436 1.331,3.702 1.364,5.587 1.365,8.249 1.364,11.855 1.364,16.109 1.363,19.779 1.332,20.495 1.364,16.69304 1.364,10.101 1.365,3.898 1.364,-0.26"
             style="fill:none;stroke:#000000;stroke-width:0.162;stroke-linecap:butt;stroke-linejoin:miter;stroke-miterlimit:3.8;stroke-dasharray:none;stroke-opacity:1"
             id="path1037" />
          <path
             d="m -113.96027,1025.4865 h -203.803 V 881.83446 h 203.803 z m -203.802,0 z"
             style="fill:none;stroke:#000000;stroke-width:0.325;stroke-linecap:butt;stroke-linejoin:miter;stroke-miterlimit:3.8;stroke-dasharray:none;stroke-opacity:1"
             id="path1039" />
        </g>
        <text
           transform="scale(1,-1)"
           style="font-variant:normal;font-weight:bold;font-size:8.9664px;font-family:Times;-inkscape-font-specification:Times-Bold;writing-mode:lr-tb;fill:#0000ff;fill-opacity:1;fill-rule:nonzero;stroke:none"
           id="text1043"
           x="-352.94727"
           y="-851.53247"><tspan
             x="-352.94727 -347.43384 -344.90619 -340.58618 -336.86603 -332.42587"
             y="-851.53247"
             sodipodi:role="line"
             id="tspan1041">Fig.1.</tspan></text>
        <text
           transform="scale(1,-1)"
           style="font-variant:normal;font-weight:normal;font-size:8.9664px;font-family:Times;-inkscape-font-specification:Times-Roman;writing-mode:lr-tb;fill:#1b1c20;fill-opacity:1;fill-rule:nonzero;stroke:none"
           id="text1047"
           x="-327.98749"
           y="-851.53247"><tspan
             x="-327.98749 -321.98718 -318.02673 -313.57938 -311.05893 -307.11371 -304.59326 -301.59311 -297.2731 -293.32788 -290.80743 -286.36008 -282.41489 -279.89441 -277.37396 -270.53351 -266.08615 -263.086 -258.63867 -256.11823 -251.3185 -246.87834 -241.71819 -235.23816 -226.478 -222.03065 -217.58331 -213.13599 -208.68864 -201.72803 -197.2807 -193.33549 -190.33533 -188.05518 -183.73517 -179.7747 -173.05438 -170.05423 -167.05408 -162.61391 -153.37404 -146.89401"
             y="-851.53247"
             sodipodi:role="line"
             id="tspan1045">Radial-velocityorbitofHD74194derivedfromHe</tspan></text>
        <text
           transform="scale(1,-1)"
           style="font-variant:normal;font-weight:normal;font-size:10.7596px;font-family:rtxsc;-inkscape-font-specification:rtxsc;writing-mode:lr-tb;fill:#1b1c20;fill-opacity:1;fill-rule:nonzero;stroke:none"
           id="text1051"
           x="-140.66167"
           y="-851.53247"><tspan
             x="-140.66167 -138.02126"
             y="-851.53247"
             sodipodi:role="line"
             id="tspan1049">ii</tspan></text>
        <text
           transform="scale(1,-1)"
           style="font-variant:normal;font-weight:normal;font-size:8.9664px;font-family:Times;-inkscape-font-specification:Times-Roman;writing-mode:lr-tb;fill:#1b1c20;fill-opacity:1;fill-rule:nonzero;stroke:none"
           id="text1055"
           x="-133.10176"
           y="-851.53247"><tspan
             x="-133.10176 -130.58131 -128.06085 -123.6207 -119.66023 -116.18037"
             y="-851.53247"
             sodipodi:role="line"
             id="tspan1053">lines.</tspan></text>
      </g>
      <g
         id="g9379"
         transform="translate(-9.131897)">
        <g
           id="g9193">
          <path
             d="m -146.90336,804.72725 h -145.476 v -145.476 h 145.476 z m -145.476,0 z m 85.033,-111.914 h 22.396 m -11.198,-11.166 v 22.364"
             style="fill:none;stroke:#000000;stroke-width:0.309;stroke-linecap:butt;stroke-linejoin:miter;stroke-miterlimit:3.8;stroke-dasharray:none;stroke-opacity:1"
             id="path2786" />
          <path
             d="m -165.49436,692.81325 0.309,0.805 0.155,0.371 0.309,0.804 0.124,0.433 0.155,0.402 0.124,0.403 0.154,0.433 0.619,2.165 0.124,0.464 0.123,0.433 0.124,0.464 0.093,0.464 0.124,0.464 0.093,0.464 0.092,0.495 0.124,0.464 0.093,0.495 0.185,0.99 0.062,0.494 0.093,0.495 0.062,0.526 0.093,0.495 0.123,1.052 0.062,0.557 0.062,0.525 0.062,0.557 0.062,0.526 0.031,0.557 0.031,0.588 0.062,0.556 0.031,0.557 0.03,0.588 v 0.588 l 0.031,0.587 v 1.207 l 0.031,0.618 -0.031,0.619 v 1.237 l -0.031,0.65 -0.03,0.619 -0.031,0.649 -0.031,0.65 -0.062,0.68 -0.062,0.65 -0.062,0.68 -0.062,0.681 -0.062,0.68 -0.092,0.712 -0.093,0.68 -0.093,0.712 -0.093,0.711 -0.124,0.743 -0.123,0.711 -0.124,0.742 -0.155,0.743 -0.123,0.742 -0.186,0.774 -0.155,0.742 -0.371,1.547 -0.185,0.804 -0.217,0.773 -0.217,0.804 -0.216,0.805 -0.248,0.804 -0.247,0.835 -0.247,0.804 -0.557,1.671 -0.31,0.866 -0.309,0.835 -0.309,0.866 -0.681,1.732 -0.742,1.732 -0.804,1.795 -1.299,2.691 -0.464,0.897 -0.99,1.856 -0.526,0.897 -0.526,0.928 -1.114,1.856 -0.587,0.928 -0.588,0.959 -0.619,0.927 -1.299,1.856 -0.68,0.959 m 0,0 -0.681,0.928 -0.711,0.928 -0.743,0.959 -0.742,0.928 -0.773,0.928 -1.609,1.856 -0.835,0.928 -0.866,0.897 -0.866,0.928 -1.794,1.794 -0.959,0.897 -0.928,0.866 -0.99,0.897 -0.99,0.836 -1.021,0.866 -2.103,1.67 -1.083,0.804 -1.113,0.805 -1.114,0.773 -1.144,0.773 -1.145,0.742 -1.175,0.712 -1.207,0.711 -1.206,0.681 -1.237,0.68 -3.805,1.856 -1.299,0.557 -1.33,0.526 -1.3,0.526 -1.361,0.464 -1.33,0.464 -1.392,0.402 -1.361,0.402 -1.392,0.34 -2.784,0.619 -1.392,0.247 -2.845,0.372 -1.423,0.123 -1.423,0.093 -1.423,0.062 h -1.392 l -1.423,-0.031 -1.423,-0.062 -1.423,-0.124 -1.392,-0.154 -1.392,-0.186 -1.392,-0.247 -1.361,-0.279 -1.361,-0.34 -1.361,-0.371 -1.33,-0.433 -1.33,-0.464 -1.299,-0.495 -1.268,-0.526 -1.268,-0.619 -1.238,-0.618 -1.237,-0.681 -1.176,-0.711 -1.175,-0.742 -1.144,-0.805 -1.114,-0.835 -1.114,-0.866 -1.051,-0.897 -1.021,-0.928 -0.99,-0.99 -0.99,-1.021 -0.928,-1.02 -0.897,-1.083 -0.866,-1.114 -0.835,-1.113 -0.804,-1.176 -0.743,-1.175 -0.742,-1.206 -0.681,-1.238 -0.68,-1.268 -0.619,-1.268 -0.557,-1.299 -0.556,-1.331 -0.526,-1.33 -0.464,-1.33 -0.433,-1.361 -0.402,-1.361 -0.372,-1.392 -0.34,-1.392 -0.557,-2.784 -0.216,-1.422 -0.217,-1.423 -0.154,-1.392 -0.124,-1.423 -0.093,-1.423 -0.062,-1.423 -0.062,-1.392 v -1.423 l 0.031,-1.392 0.031,-1.423 0.093,-1.392 m 0,0 0.093,-1.361 0.155,-1.392 0.154,-1.361 0.186,-1.361 0.185,-1.361 0.495,-2.66 0.279,-1.33 0.278,-1.299 0.309,-1.3 0.681,-2.536 0.371,-1.268 0.402,-1.207 0.402,-1.237 0.403,-1.206 0.433,-1.176 0.464,-1.175 0.433,-1.145 0.495,-1.144 0.464,-1.145 0.525,-1.082 0.495,-1.114 1.578,-3.155 0.557,-1.021 1.67,-2.969 0.588,-0.959 1.175,-1.856 0.588,-0.897 1.175,-1.732 0.619,-0.867 1.237,-1.67 0.588,-0.804 1.237,-1.547 0.65,-0.773 0.619,-0.742 1.855,-2.135 0.65,-0.68 1.237,-1.299 2.506,-2.506 0.649,-0.557 0.619,-0.588 1.237,-1.113 1.238,-1.052 0.618,-0.495 0.619,-0.526 0.619,-0.464 0.618,-0.495 0.588,-0.464 0.619,-0.433 0.587,-0.464 0.619,-0.402 0.588,-0.433 0.587,-0.402 0.619,-0.402 0.588,-0.402 1.763,-1.114 0.557,-0.34 1.175,-0.68 0.557,-0.341 0.557,-0.309 0.587,-0.309 0.557,-0.279 0.557,-0.309 1.114,-0.557 0.525,-0.278 1.114,-0.495 1.052,-0.495 0.557,-0.217 2.103,-0.866 0.495,-0.185 0.526,-0.186 0.495,-0.186 0.525,-0.185 0.495,-0.186 1.98,-0.618 m 0,0 0.495,-0.155 0.495,-0.124 0.464,-0.154 0.495,-0.124 0.464,-0.124 0.495,-0.124 0.464,-0.092 0.464,-0.124 1.392,-0.278 0.433,-0.093 0.464,-0.093 0.433,-0.062 0.464,-0.093 0.433,-0.062 0.464,-0.061 0.433,-0.093 0.433,-0.031 0.866,-0.124 0.402,-0.031 0.433,-0.062 0.433,-0.031 0.402,-0.031 0.434,-0.03 0.402,-0.031 0.433,-0.031 0.804,-0.062 h 0.804 l 0.402,-0.031 h 1.949 l 0.402,0.031 h 0.371 l 0.372,0.031 h 0.371 l 0.402,0.031 1.114,0.092 0.34,0.031 0.742,0.062 0.371,0.062 0.341,0.031 0.371,0.031 0.34,0.062 0.371,0.062 0.341,0.031 0.68,0.123 0.371,0.062 0.681,0.124 0.34,0.093 0.34,0.062 0.31,0.061 0.34,0.093 0.34,0.062 0.309,0.093 0.341,0.093 0.34,0.062 0.309,0.092 0.34,0.093 0.619,0.186 0.34,0.093 0.31,0.092 0.309,0.124 0.619,0.186 0.309,0.123 0.309,0.093 0.619,0.248 0.309,0.093 0.279,0.123 0.618,0.248 0.279,0.123 0.309,0.124 0.279,0.124 0.309,0.124 0.278,0.154 0.31,0.124 0.278,0.124 0.278,0.154 0.279,0.124 0.309,0.155 0.278,0.155 0.279,0.123 1.67,0.928 0.248,0.186 m 0,0 0.556,0.309 0.248,0.186 0.278,0.154 0.279,0.186 0.247,0.155 0.278,0.185 0.248,0.186 0.278,0.154 0.495,0.372 0.279,0.185 0.495,0.371 0.247,0.217 0.247,0.186 0.279,0.185 0.247,0.217 0.248,0.185 0.247,0.217 0.248,0.185 0.216,0.217 0.99,0.866 0.217,0.217 0.494,0.433 0.217,0.247 0.247,0.217 0.217,0.216 0.247,0.248 0.217,0.247 0.247,0.217 0.217,0.247 0.216,0.248 0.217,0.247 0.247,0.247 0.65,0.743 0.217,0.278 0.216,0.248 0.217,0.278 0.216,0.248 0.433,0.556 0.217,0.248 0.185,0.278 0.217,0.279 0.216,0.309 0.217,0.278 0.186,0.279 0.216,0.278 0.186,0.309 0.216,0.31 0.186,0.278 0.185,0.309 0.217,0.31 0.557,0.928 0.216,0.309 0.186,0.34 0.186,0.31 0.185,0.34 0.186,0.309 0.154,0.341 0.186,0.34 0.371,0.68 0.155,0.372 0.185,0.34 0.155,0.34 0.186,0.371 0.154,0.371 0.186,0.341 0.309,0.742 0.155,0.402 0.309,0.743"
             style="fill:none;stroke:#ff0000;stroke-width:0.232;stroke-linecap:butt;stroke-linejoin:miter;stroke-miterlimit:3.8;stroke-dasharray:none;stroke-opacity:1"
             id="path2788" />
          <text
             transform="scale(1,-1)"
             style="font-variant:normal;font-weight:normal;font-size:6.1865px;font-family:Helvetica;-inkscape-font-specification:Helvetica;writing-mode:lr-tb;fill:#000000;fill-opacity:1;fill-rule:nonzero;stroke:none"
             id="text2792"
             x="-218.31305"
             y="-796.47803"><tspan
               x="-218.31305 -214.18604 -209.71875 -208.34473 -206.62427 -204.90381 -203.18335 -199.05634 -194.92932 -191.14874 -189.42889 -187.70844 -185.64771 -184.27368 -180.83337 -177.39307 -173.95276"
               y="-796.47803"
               sodipodi:role="line"
               id="tspan2790">Swift/BAT trigger</tspan></text>
          <path
             d="m -247.70536,689.10925 h -6.8206 v -6.8206 h 6.8206 z m -6.82,0 z"
             style="fill:none;stroke:#000000;stroke-width:0.155;stroke-linecap:butt;stroke-linejoin:miter;stroke-miterlimit:3.8;stroke-dasharray:none;stroke-opacity:1"
             id="path2794" />
          <path
             d="m -251.11536,685.69925 v 0"
             style="fill:none;stroke:#000000;stroke-width:0.155;stroke-linecap:round;stroke-linejoin:miter;stroke-miterlimit:3.8;stroke-dasharray:none;stroke-opacity:1"
             id="path2796" />
          <path
             d="m -261.68636,707.32925 h -6.8206 v -6.8206 h 6.8206 z m -6.821,0 z"
             style="fill:none;stroke:#000000;stroke-width:0.155;stroke-linecap:butt;stroke-linejoin:miter;stroke-miterlimit:3.8;stroke-dasharray:none;stroke-opacity:1"
             id="path2798" />
          <path
             d="m -265.09736,703.91825 v 0"
             style="fill:none;stroke:#000000;stroke-width:0.155;stroke-linecap:round;stroke-linejoin:miter;stroke-miterlimit:3.8;stroke-dasharray:none;stroke-opacity:1"
             id="path2800" />
          <path
             d="m -229.98036,675.87025 h -6.8206 v -6.8206 h 6.8206 z m -6.821,0 z"
             style="fill:none;stroke:#000000;stroke-width:0.155;stroke-linecap:butt;stroke-linejoin:miter;stroke-miterlimit:3.8;stroke-dasharray:none;stroke-opacity:1"
             id="path2802" />
          <path
             d="m -233.39136,672.46025 v 0"
             style="fill:none;stroke:#000000;stroke-width:0.155;stroke-linecap:round;stroke-linejoin:miter;stroke-miterlimit:3.8;stroke-dasharray:none;stroke-opacity:1"
             id="path2804" />
          <path
             d="m -159.17636,706.12225 h -6.8206 v -6.8206 h 6.8206 z m -6.82,0 z"
             style="fill:none;stroke:#000000;stroke-width:0.155;stroke-linecap:butt;stroke-linejoin:miter;stroke-miterlimit:3.8;stroke-dasharray:none;stroke-opacity:1"
             id="path2806" />
          <path
             d="m -162.58636,702.71225 v 0"
             style="fill:none;stroke:#000000;stroke-width:0.155;stroke-linecap:round;stroke-linejoin:miter;stroke-miterlimit:3.8;stroke-dasharray:none;stroke-opacity:1"
             id="path2808" />
          <path
             d="m -261.68636,707.32925 h -6.8206 v -6.8206 h 6.8206 z m -6.821,0 z"
             style="fill:none;stroke:#000000;stroke-width:0.155;stroke-linecap:butt;stroke-linejoin:miter;stroke-miterlimit:3.8;stroke-dasharray:none;stroke-opacity:1"
             id="path2810" />
          <path
             d="m -265.09736,703.91825 v 0"
             style="fill:none;stroke:#000000;stroke-width:0.155;stroke-linecap:round;stroke-linejoin:miter;stroke-miterlimit:3.8;stroke-dasharray:none;stroke-opacity:1"
             id="path2812" />
          <path
             d="m -261.43936,706.89625 h -6.8206 v -6.8206 h 6.8206 z m -6.82,0 z"
             style="fill:none;stroke:#000000;stroke-width:0.155;stroke-linecap:butt;stroke-linejoin:miter;stroke-miterlimit:3.8;stroke-dasharray:none;stroke-opacity:1"
             id="path2814" />
          <path
             d="m -264.84936,703.48525 v 0"
             style="fill:none;stroke:#000000;stroke-width:0.155;stroke-linecap:round;stroke-linejoin:miter;stroke-miterlimit:3.8;stroke-dasharray:none;stroke-opacity:1"
             id="path2816" />
          <path
             d="m -164.28036,691.46025 h -6.8206 v -6.8206 h 6.8206 z m -6.82,0 z"
             style="fill:none;stroke:#000000;stroke-width:0.155;stroke-linecap:butt;stroke-linejoin:miter;stroke-miterlimit:3.8;stroke-dasharray:none;stroke-opacity:1"
             id="path2818" />
          <path
             d="m -167.69036,688.05025 v 0"
             style="fill:none;stroke:#000000;stroke-width:0.155;stroke-linecap:round;stroke-linejoin:miter;stroke-miterlimit:3.8;stroke-dasharray:none;stroke-opacity:1"
             id="path2820" />
          <path
             d="m -234.62036,678.59225 h -6.8206 v -6.8207 h 6.8206 z m -6.821,0 z"
             style="fill:none;stroke:#000000;stroke-width:0.155;stroke-linecap:butt;stroke-linejoin:miter;stroke-miterlimit:3.8;stroke-dasharray:none;stroke-opacity:1"
             id="path2822" />
          <path
             d="m -238.03136,675.18225 v 0"
             style="fill:none;stroke:#000000;stroke-width:0.155;stroke-linecap:round;stroke-linejoin:miter;stroke-miterlimit:3.8;stroke-dasharray:none;stroke-opacity:1"
             id="path2824" />
          <path
             d="m -157.28936,801.95125 h -6.8206 v -6.8206 h 6.8206 z m -6.821,0 z"
             style="fill:none;stroke:#000000;stroke-width:0.155;stroke-linecap:butt;stroke-linejoin:miter;stroke-miterlimit:3.8;stroke-dasharray:none;stroke-opacity:1"
             id="path2826" />
          <path
             d="m -160.69936,798.54125 v 0"
             style="fill:none;stroke:#000000;stroke-width:0.155;stroke-linecap:round;stroke-linejoin:miter;stroke-miterlimit:3.8;stroke-dasharray:none;stroke-opacity:1"
             id="path2828" />
          <text
             transform="scale(1,-1)"
             style="font-variant:normal;font-weight:normal;font-size:6.1865px;font-family:Helvetica;-inkscape-font-specification:Helvetica;writing-mode:lr-tb;fill:#000000;fill-opacity:1;fill-rule:nonzero;stroke:none"
             id="text2832"
             x="-202.83905"
             y="-787.97144"><tspan
               x="-202.83905 -201.11859 -196.65131 -192.87073 -188.74371 -183.93005 -179.46277 -175.33575"
               y="-787.97144"
               sodipodi:role="line"
               id="tspan2830">INTEGRAL</tspan></text>
          <path
             d="m -161.53436,715.53325 -3.411,-5.525 h 6.821 z"
             style="fill:none;stroke:#000000;stroke-width:0.155;stroke-linecap:butt;stroke-linejoin:miter;stroke-miterlimit:3.8;stroke-dasharray:none;stroke-opacity:1"
             id="path2834" />
          <path
             d="m -161.53436,711.71325 v 0"
             style="fill:none;stroke:#000000;stroke-width:0.155;stroke-linecap:round;stroke-linejoin:miter;stroke-miterlimit:3.8;stroke-dasharray:none;stroke-opacity:1"
             id="path2836" />
          <path
             d="m -199.24136,669.41225 -3.411,-5.524 h 6.821 z"
             style="fill:none;stroke:#000000;stroke-width:0.155;stroke-linecap:butt;stroke-linejoin:miter;stroke-miterlimit:3.8;stroke-dasharray:none;stroke-opacity:1"
             id="path2838" />
          <path
             d="m -199.24136,665.59325 v 0"
             style="fill:none;stroke:#000000;stroke-width:0.155;stroke-linecap:round;stroke-linejoin:miter;stroke-miterlimit:3.8;stroke-dasharray:none;stroke-opacity:1"
             id="path2840" />
          <path
             d="m -160.69936,793.85425 -3.411,-5.525 h 6.821 z"
             style="fill:none;stroke:#000000;stroke-width:0.155;stroke-linecap:butt;stroke-linejoin:miter;stroke-miterlimit:3.8;stroke-dasharray:none;stroke-opacity:1"
             id="path2842" />
          <path
             d="m -160.69936,790.03425 v 0"
             style="fill:none;stroke:#000000;stroke-width:0.155;stroke-linecap:round;stroke-linejoin:miter;stroke-miterlimit:3.8;stroke-dasharray:none;stroke-opacity:1"
             id="path2844" />
          <path
             d="m -146.90336,804.72725 h -145.476 v -145.476 h 145.476 z m -145.476,0 z"
             style="fill:none;stroke:#000000;stroke-width:0.309;stroke-linecap:butt;stroke-linejoin:miter;stroke-miterlimit:3.8;stroke-dasharray:none;stroke-opacity:1"
             id="path2846" />
          <text
             transform="scale(1,-1)"
             style="font-variant:normal;font-weight:bold;font-size:8.9664px;font-family:Times;-inkscape-font-specification:Times-Bold;writing-mode:lr-tb;fill:#0000ff;fill-opacity:1;fill-rule:nonzero;stroke:none"
             id="text2850"
             x="-343.81537"
             y="-638.11523"><tspan
               x="-343.81537 -338.30191 -335.77429 -331.45428 -327.73413 -323.29395"
               y="-638.11523"
               sodipodi:role="line"
               id="tspan2848">Fig.4.</tspan></text>
        </g>
        <text
           transform="scale(1,-1)"
           style="font-variant:normal;font-weight:normal;font-size:8.9664px;font-family:Times;-inkscape-font-specification:Times-Roman;writing-mode:lr-tb;fill:#1b1c20;fill-opacity:1;fill-rule:nonzero;stroke:none"
           id="text2856"
           x="-317.53485"
           y="-638.11523"><tspan
             x="-317.53485 -312.49481 -308.05466 -304.59811 -302.07767 -299.55722 -297.03674 -292.58493 -288.13312 -284.67657 -278.91656 -275.91641 -271.96671 -269.44626 -265.49655 -262.9761 -260.69592 -256.37592 -248.81546 -246.29501 -238.25482 -235.73438 -231.28256 -223.84222 -219.39044 -215.44073 -212.44055 -208.00043 -204.05072 -200.10101 -195.64917 -193.12872 -190.12854 -186.17889 -180.17859 -175.72675 -169.12659 -166.60614 -162.16595 -154.72565 -148.24561 -145.24548 -142.72504 -138.27319 -133.82135 -126.26093 -122.80438 -118.35254 -113.90076 -109.95105 -107.07104 -102.63086 -100.11041 -96.149963 -91.69812"
             y="-638.11523"
             sodipodi:role="line"
             id="tspan2852">Positions,relativetothebarycentre,oftheO-typesupergiant</tspan><tspan
             x="-343.81537 -339.34473 -334.87405 -331.90082 -329.42068 -324.95004 -318.10959 -315.58914 -311.1185 -304.87875 -300.40811 -295.93747 -293.45737 -289.13736 -284.6972 -281.72394 -278.24857 -275.76846 -270.00845 -265.53778 -260.25748 -253.7963 -245.15628 -240.68561 -236.21497 -231.74432 -227.27368 -220.31396 -217.3407 -212.87006 -208.39941 -203.92877 -197.08832 -194.60822 -187.88788 -185.40778 -180.93713 -174.69739 -172.21729 -169.73718 -167.25708 -163.28857 -160.31531 -156.34674 -153.86664 -149.396 -146.42273 -142.45422"
             y="-628.1554"
             sodipodi:role="line"
             id="tspan2854">duringtheoutburstsofHD74194foundintheliterature.</tspan></text>
      </g>
    </g>
  </g>
</svg>
